<?xml version="1.0" encoding="utf-8"?>
<!-- Generator: Adobe Illustrator 21.0.0, SVG Export Plug-In . SVG Version: 6.00 Build 0)  -->
<svg version="1.1"
	 id="svg123329" inkscape:version="0.91pre4 r13712" sodipodi:docname="iphone6_vector_mockup.svg" xmlns:cc="http://creativecommons.org/ns#" xmlns:dc="http://purl.org/dc/elements/1.1/" xmlns:inkscape="http://www.inkscape.org/namespaces/inkscape" xmlns:rdf="http://www.w3.org/1999/02/22-rdf-syntax-ns#" xmlns:sodipodi="http://sodipodi.sourceforge.net/DTD/sodipodi-0.dtd" xmlns:svg="http://www.w3.org/2000/svg"
	 xmlns="http://www.w3.org/2000/svg" xmlns:xlink="http://www.w3.org/1999/xlink" x="0px" y="0px" viewBox="0 0 201 402.1"
	 style="enable-background:new 0 0 201 402.1;" xml:space="preserve">
<style type="text/css">
	.st0{fill:none;stroke:#434343;stroke-width:2.8748;stroke-linecap:square;}
	.st1{fill:url(#rect124268_1_);}
	.st2{fill:url(#rect124252_1_);}
	.st3{fill:url(#rect124304_1_);}
	.st4{fill:url(#rect124288_1_);}
	.st5{fill:url(#rect124330_1_);}
	.st6{fill:url(#rect124332_1_);}
	.st7{fill:url(#rect124382_1_);}
	.st8{fill:url(#rect124384_1_);}
	.st9{fill:url(#path124616_1_);}
	.st10{fill:url(#path124602_1_);}
	.st11{fill:url(#path124600_1_);}
	.st12{fill:url(#path124611_1_);}
	.st13{fill:url(#path124609_1_);}
	.st14{fill:url(#path124598_1_);}
	.st15{fill:url(#path124577_1_);}
	.st16{fill:url(#path124712_1_);}
	.st17{opacity:0.2;fill:#6C6C6C;enable-background:new    ;}
	.st18{fill:url(#rect124424_1_);}
	.st19{opacity:5.000000e-02;clip-path:url(#SVGID_2_);fill:url(#path124547_1_);enable-background:new    ;}
	.st20{fill:#2D2D2E;stroke:url(#rect123888_1_);stroke-width:1.4273;stroke-linecap:square;}
	.st21{fill:#2B2726;}
	.st22{fill:url(#path124157_1_);}
	.st23{fill:#111627;stroke:url(#path123906_1_);stroke-width:0.982;stroke-linecap:square;}
	.st24{clip-path:url(#SVGID_4_);}
	.st25{filter:url(#filter123962);}
	.st26{fill:#347ABA;}
	.st27{filter:url(#filter124016);}
	.st28{fill:url(#SVGID_5_);}
	.st29{filter:url(#filter124080);}
	.st30{fill:url(#SVGID_6_);}
	.st31{filter:url(#filter124118);}
	.st32{fill:#6B89B7;}
	.st33{fill:#F7F7F7;}
	.st34{fill:url(#path124204_1_);}
	.st35{fill:#262626;}
	.st36{fill:url(#path124524_1_);}
	.st37{opacity:0.15;fill:#FFFFFF;enable-background:new    ;}
</style>
<filter  height="1.24" id="filter124118" inkscape:collect="always" style="color-interpolation-filters:sRGB" width="1.24" x="-0.12" y="-0.12">
	<feGaussianBlur  id="feGaussianBlur124120" inkscape:collect="always" stdDeviation="0.38196392"></feGaussianBlur>
</filter>
<filter  height="1.2315491" id="filter124080" inkscape:collect="always" style="color-interpolation-filters:sRGB" width="1.2490911" x="-0.12454558" y="-0.11577454">
	<feGaussianBlur  id="feGaussianBlur124082" inkscape:collect="always" stdDeviation="0.6501954"></feGaussianBlur>
</filter>
<filter  height="1.24" id="filter124016" inkscape:collect="always" style="color-interpolation-filters:sRGB" width="1.24" x="-0.12" y="-0.12">
	<feGaussianBlur  id="feGaussianBlur124018" inkscape:collect="always" stdDeviation="0.52717338"></feGaussianBlur>
</filter>
<filter  height="1.24" id="filter123962" inkscape:collect="always" style="color-interpolation-filters:sRGB" width="1.24" x="-0.12" y="-0.12">
	<feGaussianBlur  id="feGaussianBlur123964" inkscape:collect="always" stdDeviation="0.46246047"></feGaussianBlur>
</filter>
<sodipodi:namedview  bordercolor="#666666" borderopacity="1.0" fit-margin-bottom="0" fit-margin-left="0" fit-margin-right="0" fit-margin-top="0" id="base" inkscape:bbox-nodes="true" inkscape:bbox-paths="true" inkscape:current-layer="layer1" inkscape:cx="539.16188" inkscape:cy="964.42187" inkscape:document-units="px" inkscape:guide-bbox="true" inkscape:object-nodes="true" inkscape:object-paths="true" inkscape:pageopacity="0.0" inkscape:pageshadow="2" inkscape:snap-bbox="true" inkscape:snap-bbox-edge-midpoints="true" inkscape:snap-bbox-midpoints="true" inkscape:snap-global="true" inkscape:snap-intersection-paths="true" inkscape:snap-midpoints="true" inkscape:snap-smooth-nodes="true" inkscape:window-height="756" inkscape:window-maximized="0" inkscape:window-width="1280" inkscape:window-x="1" inkscape:window-y="0" inkscape:zoom="0.21871861" pagecolor="#ffffff" showgrid="false" showguides="false" units="px">
	<sodipodi:guide  id="guide124587" orientation="1,0" position="52.172781,1399.4236"></sodipodi:guide>
	<sodipodi:guide  id="guide124589" orientation="1,0" position="650.18308,1346.8957"></sodipodi:guide>
	<sodipodi:guide  id="guide124591" orientation="0,1" position="-181.12142,-178.0502"></sodipodi:guide>
	<sodipodi:guide  id="guide124593" orientation="0,1" position="-256.83572,1336.9498"></sodipodi:guide>
</sodipodi:namedview>
<g id="layer1" transform="translate(-3281.8357,581.40242)" inkscape:groupmode="layer" inkscape:label="Screenshot">
</g>
<g>
	
		<g id="layer5" transform="translate(-3281.8357,581.40242)" inkscape:groupmode="layer" inkscape:label="Phone" sodipodi:insensitive="true">
		<g id="g125358">
			<path id="path124754" inkscape:connector-curvature="0" class="st0" d="M3361.3-477.5C3361.3-477.5,3361.3-477.5,3361.3-477.5
				L3361.3-477.5c-4.7,0.1-8.9,3.7-8.9,8.4h0v0.1v0v105.6h0c0.1,4.6,4.2,8.3,8.9,8.4v0c0,0,0,0,0.1,0h2c0.1-0.1,0.5-0.2,0.9-0.2
				c0.4,0,0.8,0.1,0.9,0.2h14.1c0.1-0.2,0.4-0.3,0.8-0.3h4.8c0.3,0,0.6,0.1,0.8,0.3h17.8h0h0.1v0c4.7-0.1,8.6-3.8,8.7-8.4h0v-0.1
				v-105.6h0c-0.1-4.6-4-8.3-8.7-8.4v0L3361.3-477.5L3361.3-477.5z M3361.4-476.2h42c4.1,0,7.6,3.2,7.6,7.2v0v105.5
				c0,4-3.5,7.3-7.6,7.3h0h-42v0c-4.1,0-7.8-3.3-7.8-7.3V-469C3353.6-473,3357.3-476.2,3361.4-476.2L3361.4-476.2L3361.4-476.2z"/>
			<g id="Buttons" transform="matrix(1.4373767,0,0,1.4373767,-1399.169,-717.5803)" inkscape:label="#g124726">
				<g id="g124284" transform="translate(2020.0003,0)">
					
						<linearGradient id="rect124268_1_" gradientUnits="userSpaceOnUse" x1="1998.4861" y1="715.2099" x2="1998.4861" y2="721.499" gradientTransform="matrix(1.4374 0 0 -1.4374 -1545.0538 1219.5801)">
						<stop  offset="0" style="stop-color:#37383D"/>
						<stop  offset="2.566281e-02" style="stop-color:#898A8D"/>
						<stop  offset="0.5407" style="stop-color:#D3D4D9"/>
						<stop  offset="0.9766" style="stop-color:#C6C7CC"/>
						<stop  offset="1" style="stop-color:#434449"/>
					</linearGradient>
					<path id="rect124268" class="st1" d="M1327.5,185.3L1327.5,185.3c0.2,0,0.2,0.1,0.2,0.1v6c0,0.1-0.1,0.1-0.1,0.1h-0.1
						c-0.1,0-0.1-0.1-0.1-0.1v-6C1327.3,185.3,1327.4,185.3,1327.5,185.3z"/>
					
						<linearGradient id="rect124252_1_" gradientUnits="userSpaceOnUse" x1="2001.11" y1="715.2099" x2="2001.11" y2="721.499" gradientTransform="matrix(1.4374 0 0 -1.4374 -1548.9824 1219.5801)">
						<stop  offset="0" style="stop-color:#37383D"/>
						<stop  offset="2.566281e-02" style="stop-color:#68696E"/>
						<stop  offset="0.5407" style="stop-color:#76777C"/>
						<stop  offset="0.9766" style="stop-color:#6E6F74"/>
						<stop  offset="1" style="stop-color:#434449"/>
					</linearGradient>
					<rect id="rect124252" x="1327.2" y="185.3" class="st2" width="0.3" height="6.3"/>
				</g>
				<g id="g124324" transform="translate(1980.0003,0)">
					
						<linearGradient id="rect124304_1_" gradientUnits="userSpaceOnUse" x1="2042.188" y1="722.4079" x2="2042.188" y2="725.7644" gradientTransform="matrix(1.4374 0 0 -1.4374 -1609.7109 1219.5801)">
						<stop  offset="0" style="stop-color:#6A6B70"/>
						<stop  offset="5.373712e-02" style="stop-color:#C1C2C7"/>
						<stop  offset="0.5374" style="stop-color:#D2D3D8"/>
						<stop  offset="0.9287" style="stop-color:#9F9FA3"/>
						<stop  offset="0.9453" style="stop-color:#6F7074"/>
						<stop  offset="0.9631" style="stop-color:#747579"/>
						<stop  offset="1" style="stop-color:#BDBEC3"/>
					</linearGradient>
					<path id="rect124304" class="st3" d="M1325.5,177.8h0.3c0.1,0,0.1,0.1,0.1,0.1v3.1c0,0.1-0.1,0.1-0.1,0.1h-0.3
						c-0.1,0-0.1-0.1-0.1-0.1V178C1325.4,177.9,1325.5,177.8,1325.5,177.8z"/>
					
						<linearGradient id="rect124288_1_" gradientUnits="userSpaceOnUse" x1="2040.0483" y1="722.4079" x2="2040.0483" y2="725.7644" gradientTransform="matrix(1.4374 0 0 -1.4374 -1606.4775 1219.5801)">
						<stop  offset="0" style="stop-color:#77787C"/>
						<stop  offset="2.835057e-02" style="stop-color:#696A6E"/>
						<stop  offset="0.5374" style="stop-color:#75767B"/>
						<stop  offset="0.9781" style="stop-color:#68696E"/>
						<stop  offset="1" style="stop-color:#44454A"/>
					</linearGradient>
					<rect id="rect124288" x="1325.5" y="177.8" class="st4" width="0.6" height="3.4"/>
				</g>
				<g id="g124376" transform="translate(2000.0003,0)">
					
						<linearGradient id="rect124330_1_" gradientUnits="userSpaceOnUse" x1="2022.188" y1="821.8022" x2="2022.188" y2="828.0567" gradientTransform="matrix(1.4374 0 0 -1.4374 -1600.9635 1372.7661)">
						<stop  offset="0" style="stop-color:#6A6B70"/>
						<stop  offset="5.373712e-02" style="stop-color:#C2C3C7"/>
						<stop  offset="0.5374" style="stop-color:#C8C9CE"/>
						<stop  offset="0.9287" style="stop-color:#B8B9BE"/>
						<stop  offset="0.9531" style="stop-color:#7D7E81"/>
						<stop  offset="0.9631" style="stop-color:#696A6F"/>
						<stop  offset="1" style="stop-color:#C0C1C6"/>
					</linearGradient>
					<path id="rect124330" class="st5" d="M1305.5,185.3h0.3c0.1,0,0.1,0.1,0.1,0.1v6c0,0.1-0.1,0.1-0.1,0.1h-0.3
						c-0.1,0-0.1-0.1-0.1-0.1v-6C1305.4,185.3,1305.5,185.3,1305.5,185.3z"/>
					
						<linearGradient id="rect124332_1_" gradientUnits="userSpaceOnUse" x1="2020.0483" y1="821.7962" x2="2020.0483" y2="828.0593" gradientTransform="matrix(1.4374 0 0 -1.4374 -1597.73 1372.7661)">
						<stop  offset="0" style="stop-color:#45464A"/>
						<stop  offset="2.835057e-02" style="stop-color:#6F7075"/>
						<stop  offset="0.5374" style="stop-color:#75767B"/>
						<stop  offset="0.9781" style="stop-color:#5E5F64"/>
						<stop  offset="1" style="stop-color:#4D4E52"/>
					</linearGradient>
					<rect id="rect124332" x="1305.5" y="185.3" class="st6" width="0.6" height="6.3"/>
				</g>
				<g id="g124420" transform="translate(2000.0003,0)">
					
						<linearGradient id="rect124382_1_" gradientUnits="userSpaceOnUse" x1="2022.188" y1="927.2167" x2="2022.188" y2="933.4711" gradientTransform="matrix(1.4374 0 0 -1.4374 -1600.9635 1532.0004)">
						<stop  offset="0" style="stop-color:#595A5E"/>
						<stop  offset="5.373712e-02" style="stop-color:#C9CACF"/>
						<stop  offset="0.5374" style="stop-color:#D2D3D8"/>
						<stop  offset="0.9101" style="stop-color:#BBBCC1"/>
						<stop  offset="0.9531" style="stop-color:#737478"/>
						<stop  offset="0.9631" style="stop-color:#696A6F"/>
						<stop  offset="1" style="stop-color:#BFC0C4"/>
					</linearGradient>
					<path id="rect124382" class="st7" d="M1305.5,193h0.3c0.1,0,0.1,0.1,0.1,0.1v6c0,0.1-0.1,0.1-0.1,0.1h-0.3
						c-0.1,0-0.1-0.1-0.1-0.1v-6C1305.4,193,1305.5,193,1305.5,193z"/>
					
						<linearGradient id="rect124384_1_" gradientUnits="userSpaceOnUse" x1="2020.0483" y1="927.2106" x2="2020.0483" y2="933.4738" gradientTransform="matrix(1.4374 0 0 -1.4374 -1597.73 1532.0004)">
						<stop  offset="0" style="stop-color:#424347"/>
						<stop  offset="2.835057e-02" style="stop-color:#6F7075"/>
						<stop  offset="0.5374" style="stop-color:#75767B"/>
						<stop  offset="0.9781" style="stop-color:#68696E"/>
						<stop  offset="1" style="stop-color:#393A3F"/>
					</linearGradient>
					<rect id="rect124384" x="1305.5" y="193" class="st8" width="0.6" height="6.3"/>
				</g>
			</g>
			<g id="g124716" transform="matrix(1.4373767,0,0,1.4373767,-1399.169,-717.5803)">
				
					<radialGradient id="path124616_1_" cx="4969.457" cy="-319.4333" r="3.0792" gradientTransform="matrix(-4.763104e-06 2.7814 2.8748 4.832659e-06 4259.5532 -13575.6191)" gradientUnits="userSpaceOnUse">
					<stop  offset="0" style="stop-color:#EDEDED"/>
					<stop  offset="0.8618" style="stop-color:#B5B6B9"/>
					<stop  offset="0.88" style="stop-color:#C4C4C4"/>
					<stop  offset="0.9389" style="stop-color:#D2D2D2"/>
					<stop  offset="1" style="stop-color:#737373"/>
				</radialGradient>
				<path id="path124616" inkscape:connector-curvature="0" class="st9" d="M3347.4,246.4h-0.9c0,2.8-2.4,5.1-5.3,5.1h0v0.9h0
					C3344.6,252.3,3347.4,249.7,3347.4,246.4z"/>
				
					<radialGradient id="path124602_1_" cx="5445.9404" cy="742.8727" r="3.0792" gradientTransform="matrix(2.8748 0 0 -2.7633 -12314.584 2225.7429)" gradientUnits="userSpaceOnUse">
					<stop  offset="0" style="stop-color:#EDEDED"/>
					<stop  offset="0.8618" style="stop-color:#B5B6B9"/>
					<stop  offset="0.88" style="stop-color:#C4C4C4"/>
					<stop  offset="0.9389" style="stop-color:#D2D2D2"/>
					<stop  offset="1" style="stop-color:#737373"/>
				</radialGradient>
				<path id="path124602" inkscape:connector-curvature="0" class="st10" d="M3341.2,167v0.9h0c2.9,0,5.3,2.2,5.3,5v0h0.9v0
					C3347.4,169.7,3344.6,167,3341.2,167L3341.2,167z"/>
				
					<linearGradient id="path124600_1_" gradientUnits="userSpaceOnUse" x1="5412.0083" y1="677.0831" x2="5412.0083" y2="671.1246" gradientTransform="matrix(1.4374 0 0 -1.4374 -4452.4834 1219.5801)">
					<stop  offset="0" style="stop-color:#EDEDED"/>
					<stop  offset="0.8618" style="stop-color:#B5B6B9"/>
					<stop  offset="0.88" style="stop-color:#C4C4C4"/>
					<stop  offset="0.9389" style="stop-color:#D2D2D2"/>
					<stop  offset="1" style="stop-color:#737373"/>
				</linearGradient>
				<path id="path124600" inkscape:connector-curvature="0" sodipodi:nodetypes="ccsccccsscccsc" class="st11" d="M3311.9,251.4v0.9
					c0,0,0,0,0,0h1.4c0.1-0.1,0.3-0.2,0.6-0.2c0.3,0,0.5,0.1,0.6,0.2h9.8c0.1-0.1,0.3-0.2,0.5-0.2h3.4c0.2,0,0.4,0.1,0.5,0.2h12.5
					v-0.9L3311.9,251.4C3311.9,251.4,3311.9,251.4,3311.9,251.4z"/>
				
					<radialGradient id="path124611_1_" cx="5564.4214" cy="-468.8384" r="3.143" gradientTransform="matrix(3.353795e-06 -2.7241 -2.8748 -3.474308e-06 1964.1703 15404.4639)" gradientUnits="userSpaceOnUse">
					<stop  offset="0" style="stop-color:#EDEDED"/>
					<stop  offset="0.8618" style="stop-color:#B5B6B9"/>
					<stop  offset="0.88" style="stop-color:#C4C4C4"/>
					<stop  offset="0.9389" style="stop-color:#D2D2D2"/>
					<stop  offset="1" style="stop-color:#737373"/>
				</radialGradient>
				<path id="path124611" inkscape:connector-curvature="0" class="st12" d="M3306.6,246.4h-0.9c0,3.3,3,5.9,6.3,6v-0.9
					C3309.2,251.4,3306.6,249.1,3306.6,246.4z"/>
				
					<linearGradient id="path124609_1_" gradientUnits="userSpaceOnUse" x1="5401.8369" y1="702.6133" x2="5395.5508" y2="702.6133" gradientTransform="matrix(1.4374 0 0 -1.4374 -4452.4834 1219.5801)">
					<stop  offset="0" style="stop-color:#EDEDED"/>
					<stop  offset="0.8618" style="stop-color:#B5B6B9"/>
					<stop  offset="0.88" style="stop-color:#C4C4C4"/>
					<stop  offset="0.9389" style="stop-color:#D2D2D2"/>
					<stop  offset="1" style="stop-color:#737373"/>
				</linearGradient>
				<path id="path124609" inkscape:connector-curvature="0" sodipodi:nodetypes="ccccccc" class="st13" d="M3306.6,172.9h-0.9v73.6
					l0,0h0.9l0,0V172.9z"/>
				
					<radialGradient id="path124598_1_" cx="4997.8198" cy="560.8693" r="3.143" gradientTransform="matrix(-1.572182e-05 -2.7064 -2.8748 1.642320e-05 4924.438 13699.043)" gradientUnits="userSpaceOnUse">
					<stop  offset="0" style="stop-color:#EDEDED"/>
					<stop  offset="0.8618" style="stop-color:#B5B6B9"/>
					<stop  offset="0.88" style="stop-color:#C4C4C4"/>
					<stop  offset="0.9389" style="stop-color:#D2D2D2"/>
					<stop  offset="1" style="stop-color:#737373"/>
				</radialGradient>
				<path id="path124598" inkscape:connector-curvature="0" class="st14" d="M3312,167c-3.3,0-6.3,2.6-6.3,5.9v0h0.9v0
					c0-2.8,2.6-5,5.4-5V167z"/>
				
					<linearGradient id="path124577_1_" gradientUnits="userSpaceOnUse" x1="5412.0083" y1="728.1642" x2="5412.0083" y2="734.0541" gradientTransform="matrix(1.4374 0 0 -1.4374 -4452.4834 1219.5801)">
					<stop  offset="0" style="stop-color:#EDEDED"/>
					<stop  offset="0.8618" style="stop-color:#B5B6B9"/>
					<stop  offset="0.88" style="stop-color:#C4C4C4"/>
					<stop  offset="0.9389" style="stop-color:#D2D2D2"/>
					<stop  offset="1" style="stop-color:#737373"/>
				</linearGradient>
				<path id="path124577" inkscape:connector-curvature="0" sodipodi:nodetypes="ccsccsc" class="st15" d="M3311.9,167v0.9
					c0,0,0,0,0,0h29.4V167L3311.9,167C3311.9,167,3311.9,167,3311.9,167z"/>
				
					<linearGradient id="path124712_1_" gradientUnits="userSpaceOnUse" x1="5099.4546" y1="702.6133" x2="5093.1685" y2="702.6133" gradientTransform="matrix(-1.4374 0 0 -1.4374 10670.9414 1219.5801)">
					<stop  offset="0" style="stop-color:#EDEDED"/>
					<stop  offset="0.8618" style="stop-color:#B5B6B9"/>
					<stop  offset="0.88" style="stop-color:#C4C4C4"/>
					<stop  offset="0.9389" style="stop-color:#D2D2D2"/>
					<stop  offset="1" style="stop-color:#737373"/>
				</linearGradient>
				<path id="path124712" inkscape:connector-curvature="0" sodipodi:nodetypes="ccccccc" class="st16" d="M3346.5,172.9h0.9v73.6
					l0,0h-0.9l0,0V172.9z"/>
			</g>
			<g id="g124811" transform="matrix(1.4373767,0,0,1.4373767,-1399.169,-717.5803)">
				<rect id="rect124740" x="3305.7" y="173.8" class="st17" width="0.8" height="1.3"/>
				<rect id="rect124750" x="3346.8" y="173.8" class="st17" width="0.6" height="1.3"/>
				<rect id="rect124807" x="3305.7" y="244.6" class="st17" width="0.8" height="1.3"/>
				<rect id="rect124809" x="3346.8" y="244.6" class="st17" width="0.6" height="1.3"/>
			</g>
			
				<linearGradient id="rect124424_1_" gradientUnits="userSpaceOnUse" x1="5379.9482" y1="250.829" x2="5379.9482" y2="333.5309" gradientTransform="matrix(1.4374 0 0 -1.4374 -4350.5566 3.9828)">
				<stop  offset="0" style="stop-color:#EDEDED"/>
				<stop  offset="1" style="stop-color:#F8F8F8"/>
			</linearGradient>
			<path id="rect124424" inkscape:connector-curvature="0" class="st18" d="M3361.5-476.3c-4.4,0-8,3.5-8,7.9v104.7
				c0,4.4,3.6,7.9,8,7.9h42c4.4,0,8-3.5,8-7.9v-104.7c0-4.4-3.6-7.9-8-7.9H3361.5L3361.5-476.3z M3355.9-462.7h53v93.5h-53
				L3355.9-462.7L3355.9-462.7z"/>
			<g>
				<defs>
					<path id="SVGID_1_" d="M3361.5-476.3c-4.4,0-8,3.5-8,7.9v104.7c0,4.4,3.6,7.9,8,7.9h42c4.4,0,8-3.5,8-7.9v-104.7
						c0-4.4-3.6-7.9-8-7.9H3361.5z M3355.9-462.7h53v93.5h-53V-462.7z"/>
				</defs>
				<clipPath id="SVGID_2_">
					<use xlink:href="#SVGID_1_"  style="overflow:visible;"/>
				</clipPath>
				
					<linearGradient id="path124547_1_" gradientUnits="userSpaceOnUse" x1="5379.9478" y1="250.829" x2="5379.9478" y2="333.5309" gradientTransform="matrix(1.4374 0 0 -1.4374 -4350.5566 3.9828)">
					<stop  offset="0" style="stop-color:#EDEDED"/>
					<stop  offset="1" style="stop-color:#F8F8F8"/>
				</linearGradient>
				<path id="path124547" inkscape:connector-curvature="0" class="st19" d="M3361.5-476.3c-4.4,0-8,3.5-8,7.9v104.7
					c0,4.4,3.6,7.9,8,7.9h42c4.4,0,8-3.5,8-7.9v-104.7c0-4.4-3.6-7.9-8-7.9H3361.5z M3355.9-462.7h53v93.5h-53V-462.7z"/>
			</g>
			
				<linearGradient id="rect123888_1_" gradientUnits="userSpaceOnUse" x1="4379.8867" y1="348.2477" x2="4379.8867" y2="346.4281" gradientTransform="matrix(1.4374 0 0 -1.4374 -2913.1794 29.7553)">
				<stop  offset="0" style="stop-color:#2D2D2E"/>
				<stop  offset="0.1556" style="stop-color:#363636"/>
				<stop  offset="0.8311" style="stop-color:#2B2A2A"/>
				<stop  offset="1" style="stop-color:#4A4646"/>
			</linearGradient>
			<path id="rect123888" class="st20" d="M3378-469.9h8.8c0.2,0,0.4,0.2,0.4,0.4v0c0,0.2-0.2,0.4-0.4,0.4h-8.8
				c-0.2,0-0.4-0.2-0.4-0.4v0C3377.5-469.7,3377.7-469.9,3378-469.9z"/>
			<ellipse id="path123904" class="st21" cx="3382.4" cy="-473.5" rx="0.8" ry="0.8"/>
			<g id="g124195" transform="matrix(1.4373767,0,0,1.4373767,1418.0898,-717.5803)">
				
					<linearGradient id="path124157_1_" gradientUnits="userSpaceOnUse" x1="2083.4204" y1="728.6974" x2="2084.4509" y2="727.7626" gradientTransform="matrix(1.4374 0 0 -1.4374 -1635.2251 1219.5801)">
					<stop  offset="0" style="stop-color:#262626"/>
					<stop  offset="1" style="stop-color:#7B7B7B"/>
				</linearGradient>
				<ellipse id="path124157" class="st22" cx="1360" cy="172.6" rx="1" ry="1"/>
				
					<linearGradient id="path123906_1_" gradientUnits="userSpaceOnUse" x1="2075.5798" y1="728.3858" x2="2076.804" y2="727.2512" gradientTransform="matrix(1.4215 0 0 -1.4215 -1591.0408 1207.4694)">
					<stop  offset="0" style="stop-color:#050607"/>
					<stop  offset="1" style="stop-color:#3A3938"/>
				</linearGradient>
				<ellipse id="path123906" class="st23" cx="1360" cy="172.7" rx="0.6" ry="0.6"/>
				<g>
					<defs>
						<ellipse id="SVGID_3_" cx="1360" cy="172.7" rx="0.5" ry="0.5"/>
					</defs>
					<clipPath id="SVGID_4_">
						<use xlink:href="#SVGID_3_"  style="overflow:visible;"/>
					</clipPath>
					<g id="g124122" class="st24">
						<g id="path123916" class="st25">
							<ellipse class="st26" cx="1359.8" cy="172.4" rx="0.4" ry="0.4"/>
						</g>
						<g id="path123966" class="st27">
							
								<radialGradient id="SVGID_5_" cx="2069.7256" cy="731.9402" r="0.2578" gradientTransform="matrix(1.4374 0 0 -1.4241 -1615.2251 1215.1926)" gradientUnits="userSpaceOnUse">
								<stop  offset="0" style="stop-color:#6F8EBD"/>
								<stop  offset="1" style="stop-color:#223152"/>
							</radialGradient>
							<ellipse class="st28" cx="1359.8" cy="172.8" rx="0.4" ry="0.4"/>
						</g>
						<g id="path124020" inkscape:connector-curvature="0" class="st29">
							
								<linearGradient id="SVGID_6_" gradientUnits="userSpaceOnUse" x1="2069.8081" y1="728.1202" x2="2070.2705" y2="728.5718" gradientTransform="matrix(1.4374 0 0 -1.4374 -1615.2251 1219.5801)">
								<stop  offset="0" style="stop-color:#25384F"/>
								<stop  offset="1" style="stop-color:#2C466D"/>
							</linearGradient>
							<path class="st30" d="M1360.3,172.4c0,0,0,0.1,0,0.1c0,0.3-0.2,0.5-0.5,0.5c0.1,0,0.1,0.1,0.2,0.1c0.2,0,0.4-0.2,0.4-0.4
								C1360.3,172.5,1360.3,172.4,1360.3,172.4z"/>
						</g>
						<g id="path124084" class="st31">
							<ellipse class="st32" cx="1360.2" cy="172.4" rx="0.3" ry="0.3"/>
						</g>
					</g>
				</g>
			</g>
			<g id="g124248" transform="matrix(1.4373767,0,0,1.4373767,1245.6046,-717.5803)">
				<path id="circle124228" inkscape:connector-curvature="0" class="st33" d="M1486.6,243.5c-1.9,0-3.4,1.5-3.4,3.2c0,0,0,0,0,0
					c0,1.8,1.5,3.2,3.4,3.2c1.9,0,3.4-1.5,3.4-3.2c0,0,0,0,0,0C1490,245,1488.5,243.5,1486.6,243.5
					C1486.6,243.5,1486.6,243.5,1486.6,243.5z M1486.6,243.9c1.6,0,2.8,1.3,2.8,2.9c0,1.6-1.3,2.9-2.8,2.9c-1.6,0-2.8-1.3-2.8-2.9
					C1483.8,245.2,1485,243.9,1486.6,243.9C1486.6,243.9,1486.6,243.9,1486.6,243.9z"/>
				
					<linearGradient id="path124204_1_" gradientUnits="userSpaceOnUse" x1="2292.5632" y1="674.6594" x2="2290.6411" y2="680.7114" gradientTransform="matrix(1.4374 0 0 -1.4374 -1807.7103 1219.5801)">
					<stop  offset="0" style="stop-color:#0C0F11"/>
					<stop  offset="0.1221" style="stop-color:#070A0C"/>
					<stop  offset="0.3763" style="stop-color:#E7E8EA"/>
					<stop  offset="0.5014" style="stop-color:#FFFFFF"/>
					<stop  offset="0.6109" style="stop-color:#EEF0EF"/>
					<stop  offset="0.7726" style="stop-color:#292B2E"/>
					<stop  offset="0.8988" style="stop-color:#3C3D3F"/>
					<stop  offset="1" style="stop-color:#3B3C3E"/>
				</linearGradient>
				<path id="path124204" inkscape:connector-curvature="0" class="st34" d="M1486.6,243.5c-1.8,0-3.3,1.5-3.3,3.2c0,0,0,0,0,0
					c0,1.8,1.5,3.2,3.3,3.2l0,0c1.8,0,3.3-1.5,3.3-3.2C1489.9,245,1488.4,243.5,1486.6,243.5
					C1486.6,243.5,1486.6,243.5,1486.6,243.5z M1486.6,243.9c1.6,0,2.9,1.3,2.9,2.9c0,0,0,0,0,0c0,1.6-1.3,2.9-2.9,2.9
					c-1.6,0-2.9-1.3-2.9-2.9C1483.7,245.2,1485,243.9,1486.6,243.9C1486.6,243.9,1486.6,243.9,1486.6,243.9z"/>
			</g>
			<path id="rect124426" inkscape:connector-curvature="0" class="st35" d="M3356.1-462.8c-0.3,0-0.5,0.2-0.5,0.5v92.7
				c0,0.3,0.2,0.5,0.5,0.5h52.6c0.3,0,0.5-0.2,0.5-0.5v-92.7c0-0.3-0.2-0.5-0.5-0.5L3356.1-462.8L3356.1-462.8z M3356-462.4h52.7
				v92.9H3356V-462.4L3356-462.4z"/>
			
				<linearGradient id="path124524_1_" gradientUnits="userSpaceOnUse" x1="6379.9565" y1="250.2922" x2="6379.9565" y2="333.8517" gradientTransform="matrix(1.4374 0 0 -1.4374 -5787.9331 3.9828)">
				<stop  offset="0" style="stop-color:#EFEFEF"/>
				<stop  offset="4.280499e-02" style="stop-color:#FEFEFE"/>
				<stop  offset="0.4921" style="stop-color:#FCFCFC"/>
				<stop  offset="0.958" style="stop-color:#FFFFFF"/>
				<stop  offset="1" style="stop-color:#F8F8F8"/>
			</linearGradient>
			<path id="path124524" inkscape:connector-curvature="0" class="st36" d="M3361.5-475.9c-4.4,0-7.5,3.1-7.5,7.5v104.7
				c0,4.4,3.1,7.9,7.5,7.9h42c4.4,0,7.5-3.5,7.5-7.9v-104.7c0-4.4-3.1-7.5-7.5-7.5H3361.5L3361.5-475.9z M3362.9-475.8h39.2
				c4.4,0,8,3,8,7.4v104.7c0,4.4-3.6,7.5-8,7.5h-39.2c-4.4,0-8-3.1-8-7.5v-104.7C3354.9-472.8,3358.4-475.8,3362.9-475.8
				L3362.9-475.8z"/>
		</g>
	</g>
	
		<g id="layer4" transform="translate(-3281.8357,581.40242)" inkscape:groupmode="layer" inkscape:label="Gloss" sodipodi:insensitive="true">
		<path id="path125212" inkscape:connector-curvature="0" sodipodi:nodetypes="ssssccs" class="st37" d="M3361.5-476.3
			c-4.4,0-8,3.5-8,7.9v104.7c0,4.4,3.6,7.9,8,7.9h9.4l14.7-120.6L3361.5-476.3z"/>
	</g>
</g>
</svg>
