<svg xmlns="http://www.w3.org/2000/svg" viewBox="0 0 1366.5 768"><defs><style>.cls-1{fill:#fff;}.cls-2,.cls-3{fill:none;}.cls-3{stroke:#ff0;}.cls-10,.cls-3{stroke-miterlimit:10;}.cls-4{fill:#cfdfe8;}.cls-5{fill:#87cee9;}.cls-6{fill:#5f79ba;}.cls-7{fill:#ffd782;}.cls-8{fill:#5a6470;}.cls-9{fill:#f4f4e6;}.cls-10,.cls-11{fill:#4d4d4d;}.cls-10{stroke:#4d4d4d;stroke-width:5px;}.cls-12{fill:#ccc;}.cls-13{fill:#adadad;}.cls-14{fill:#69cdff;}.cls-15{fill:#445ea0;}.cls-16{fill:#2e4c89;}.cls-17{fill:#293d7c;}.cls-18{fill:#1a2b63;}.cls-19{fill:#d9eafc;}.cls-20{fill:#c3ddf4;}.cls-21{fill:#aec1ed;}.cls-22{fill:#ffaf10;}.cls-23{fill:#ff9518;}.cls-24{fill:#5dc1d8;}</style></defs><title>Home@ccc</title><g id="Layer_2" data-name="Layer 2"><g id="Layer_1-2" data-name="Layer 1"><path class="cls-1" d="M1366,354.21c-24.12-12.93-42-27.65-54.6-45-48.93-67.28-51.61-98.63-54-126.29-1.12-13.12-2.18-25.52-8-40.59-12.53-32.73-36.22-43.53-61.31-55-11.42-5.21-23.22-10.59-34.89-18.27-20.45-13.45-48-44.54-67.69-68.58H1366Z"/><path class="cls-1" d="M1365.5,1V353.37c-23.68-12.8-41.25-27.35-53.69-44.46-48.85-67.16-51.52-98.45-53.89-126-1.13-13.16-2.19-25.59-8-40.73-12.61-32.92-36.39-43.77-61.57-55.25-11.4-5.2-23.19-10.58-34.82-18.23C1133.39,55.4,1106.3,24.9,1086.64,1H1365.5m1-1h-282c20.9,25.53,48.13,56.12,68.47,69.5,38,25,78,26,96,73s-10,68,62,167c14.31,19.68,33.91,34.06,55.5,45.54V0Z"/><path class="cls-1" d="M1,767.5V1.33C23.89,8.52,379.23,122.61,425.52,283.64c27.82,96.79,79.33,125.69,129.14,153.64,36.25,20.34,73.74,41.37,101.91,88.48,62.35,104.23,244.55,154.9,557,154.9h0c47.45,0,98.71-1.2,152.37-3.55v90.4Z"/><path class="cls-1" d="M1.5,2C16.67,6.79,106.65,36,200.9,83.45c56.84,28.64,104,58.36,140.3,88.33,44.95,37.15,73.15,74.84,83.84,112,27.88,97,79.48,125.94,129.37,153.94C590.61,458,628,479,656.14,526c62.45,104.4,244.8,155.14,557.45,155.14,47.33,0,98.44-1.19,151.91-3.53V767H1.5V2M.5.65V768h1366V676.58q-81.69,3.6-152.91,3.58c-330.17,0-498-56.76-556.59-154.66-67-112-183-75-231-242C379,120,15.77,5.41.5.65Z"/><path class="cls-2" d="M1084.53,0c20.9,25.53,48.13,56.12,68.47,69.5,38,25,78,26,96,73s-10,68,62,167c14.31,19.68,33.91,34.06,55.5,45.54"/><path class="cls-3" d="M0,.5"/><path class="cls-2" d="M1366.5,676.58C934,695.65,724,637.5,657,525.5s-183-75-231-242C379,120,15.77,5.41.5.65L0,.5"/><path d="M414.5,517.15a4.39,4.39,0,0,0-4.39-4.39H343.89a4.39,4.39,0,0,0-4.39,4.39v42.31a29.75,29.75,0,0,0,1.45,9.18l1.67,5.16v6.58a1.42,1.42,0,0,0,1.12,1.42,1.37,1.37,0,0,0,1.61-1.35v-7.09a.2.2,0,0,0,0-.06l-2.59-9.11a3.73,3.73,0,0,1-.14-1v-13.9a1.5,1.5,0,0,1,.86-1.37,1.57,1.57,0,0,1,2.27,1.41v3.52a1.42,1.42,0,0,0,1.12,1.42,1.37,1.37,0,0,0,1.61-1.35v-5.79a1.5,1.5,0,0,1,.86-1.37,1.57,1.57,0,0,1,2.27,1.41v5.68a1.42,1.42,0,0,0,1.12,1.42,1.37,1.37,0,0,0,1.61-1.35v-7.66a1.5,1.5,0,0,1,.86-1.37,1.57,1.57,0,0,1,2.27,1.41v7.55a1.42,1.42,0,0,0,1.12,1.42,1.37,1.37,0,0,0,1.61-1.35V535.64a1.5,1.5,0,0,1,.86-1.37,1.57,1.57,0,0,1,2.27,1.41v21.16a1.48,1.48,0,0,0,.54,1.18,1.32,1.32,0,0,0,2-.48l3.13-6.22a1.56,1.56,0,0,1,2.95.8,1.77,1.77,0,0,1,0,.19l-2.12,9.39a14.15,14.15,0,0,1-2.11,4.86l-4.14,6.07a1.46,1.46,0,0,0-.25.83v6.87a1.45,1.45,0,0,0,1.12,1.45,1.4,1.4,0,0,0,1.61-1.44V574l3.87-5.68a17.08,17.08,0,0,0,2.55-5.87l1.24-5.52h6.93l1.24,5.52a17.08,17.08,0,0,0,2.55,5.87l3.87,5.68v6.37a1.45,1.45,0,0,0,1.12,1.45,1.4,1.4,0,0,0,1.61-1.44v-7.18a.19.19,0,0,0,0-.11l-6.44-8.33a1.79,1.79,0,0,1-.32-.65l-3.12-12.23a.23.23,0,0,1,0-.14,1.86,1.86,0,0,1,3.34-.45l3.88,6.79a.21.21,0,0,0,.08.08,1.63,1.63,0,0,0,2.61-1.17V535a.2.2,0,0,1,.06-.14c1.36-1.41,3.07-.51,3.07.76v17.21a1.42,1.42,0,0,0,1.12,1.42,1.37,1.37,0,0,0,1.61-1.35v-7.66a1.5,1.5,0,0,1,.86-1.37,1.57,1.57,0,0,1,2.27,1.41v7.55a1.42,1.42,0,0,0,1.12,1.42,1.37,1.37,0,0,0,1.61-1.35v-5.79a1.5,1.5,0,0,1,.86-1.37,1.57,1.57,0,0,1,2.27,1.41v5.68a1.42,1.42,0,0,0,1.12,1.42,1.37,1.37,0,0,0,1.61-1.35v-3.63a1.5,1.5,0,0,1,.86-1.37,1.57,1.57,0,0,1,2.27,1.41V559.5a26.83,26.83,0,0,1-1.23,8l-1.83,5.83a1.47,1.47,0,0,0-.07.44v6.59a1.42,1.42,0,0,0,1.12,1.42,1.37,1.37,0,0,0,1.61-1.35V573.8l1.67-5.16a29.75,29.75,0,0,0,1.45-9.18V517.15ZM379,553.2l.23,1h-4.17l.23-1a4.47,4.47,0,0,0-1.5-4.51h6.71A4.47,4.47,0,0,0,379,553.2Zm32.72-8.26a4.25,4.25,0,0,0-3.29.16,4.33,4.33,0,0,0-3.94-2.58,4.24,4.24,0,0,0-2,.48,4.32,4.32,0,0,0-3.82-2.34,4.24,4.24,0,0,0-1.45.25v-5.15a4.49,4.49,0,0,0-9-.12v15.5l-.71-1.3a4.63,4.63,0,0,0-3.12-2.3,1.44,1.44,0,0,0,0-1.11,1.51,1.51,0,0,0-1.4-.87H373a1.5,1.5,0,0,0-1.38.84,1.44,1.44,0,0,0-.06,1.09,4.66,4.66,0,0,0-4.8,2.35l-.71,1.3V535.77a4.49,4.49,0,0,0-9-.12v5.27a4.24,4.24,0,0,0-1.45-.25,4.32,4.32,0,0,0-3.82,2.34,4.24,4.24,0,0,0-2-.48,4.33,4.33,0,0,0-3.94,2.58,4.25,4.25,0,0,0-3.29-.16V517a1.46,1.46,0,0,1,1.46-1.46H410.3a1.46,1.46,0,0,1,1.46,1.46Z"/><path d="M355.15,529.16h-5.8a1.42,1.42,0,0,0-1.42,1.12,1.37,1.37,0,0,0,1.35,1.61h5.8a1.42,1.42,0,0,0,1.42-1.12A1.37,1.37,0,0,0,355.15,529.16Z"/><path d="M370,529.16h-2.09a1.42,1.42,0,0,0-1.42,1.12,1.37,1.37,0,0,0,1.35,1.61h2.09a1.42,1.42,0,0,0,1.42-1.12A1.37,1.37,0,0,0,370,529.16Z"/><path d="M351.51,537.36h-2.28a1.42,1.42,0,0,0-1.42,1.12,1.37,1.37,0,0,0,1.35,1.61h2.28a1.42,1.42,0,0,0,1.42-1.12A1.37,1.37,0,0,0,351.51,537.36Z"/><path d="M373.87,537.36H371.4a1.42,1.42,0,0,0-1.42,1.12,1.37,1.37,0,0,0,1.35,1.61h2.47a1.42,1.42,0,0,0,1.42-1.12A1.37,1.37,0,0,0,373.87,537.36Z"/><path d="M354,521h-4.65a1.42,1.42,0,0,0-1.42,1.12,1.37,1.37,0,0,0,1.35,1.61h4.65a1.42,1.42,0,0,0,1.42-1.12A1.37,1.37,0,0,0,354,521Z"/><path d="M369.9,521h-4.25a1.42,1.42,0,0,0-1.42,1.12,1.37,1.37,0,0,0,1.35,1.61h4.25a1.42,1.42,0,0,0,1.42-1.12A1.37,1.37,0,0,0,369.9,521Z"/><path d="M360.88,521.37a1.47,1.47,0,1,0,.43,1A1.47,1.47,0,0,0,360.88,521.37Z"/><path d="M379.11,529.16h-3.55a1.42,1.42,0,0,0-1.42,1.12,1.37,1.37,0,0,0,1.35,1.61H379a1.42,1.42,0,0,0,1.42-1.12A1.37,1.37,0,0,0,379.11,529.16Z"/><path d="M387.23,529.57a1.46,1.46,0,1,0,.43,1A1.48,1.48,0,0,0,387.23,529.57Z"/><path d="M405.18,529.16h-5.07a1.42,1.42,0,0,0-1.42,1.12,1.37,1.37,0,0,0,1.35,1.61h5.07a1.42,1.42,0,0,0,1.42-1.12A1.37,1.37,0,0,0,405.18,529.16Z"/><path d="M384.27,537.36h-2.68a1.42,1.42,0,0,0-1.42,1.12,1.37,1.37,0,0,0,1.35,1.61h2.68a1.42,1.42,0,0,0,1.42-1.12A1.37,1.37,0,0,0,384.27,537.36Z"/><path d="M405,537.36h-2.47a1.42,1.42,0,0,0-1.42,1.12,1.37,1.37,0,0,0,1.35,1.61h2.47a1.42,1.42,0,0,0,1.42-1.12A1.37,1.37,0,0,0,405,537.36Z"/><path d="M380.94,521H377.4a1.42,1.42,0,0,0-1.42,1.12,1.37,1.37,0,0,0,1.35,1.61h3.55a1.42,1.42,0,0,0,1.42-1.12A1.37,1.37,0,0,0,380.94,521Z"/><path d="M405.17,521h-4.45a1.42,1.42,0,0,0-1.42,1.12,1.37,1.37,0,0,0,1.35,1.61h4.45a1.42,1.42,0,0,0,1.42-1.12A1.37,1.37,0,0,0,405.17,521Z"/><path d="M392.83,521h-2.92a1.42,1.42,0,0,0-1.42,1.12,1.37,1.37,0,0,0,1.35,1.61h2.92a1.42,1.42,0,0,0,1.42-1.12A1.37,1.37,0,0,0,392.83,521Z"/><path d="M157.6,171.93H111.4a10.06,10.06,0,0,0-9.9,10.19v29.43a10.06,10.06,0,0,0,9.9,10.19h3.06l-1.94,10a1.15,1.15,0,0,0,.42,1.13,1.07,1.07,0,0,0,1.17.1l20.66-11.18H157.6a10.06,10.06,0,0,0,9.9-10.19V182.11A10.06,10.06,0,0,0,157.6,171.93Zm7.31,39.91a7.8,7.8,0,0,1-7.68,7.9H134.18a1.07,1.07,0,0,0-.51.13L114.85,230l1.74-9a1.15,1.15,0,0,0-.23-.94,1.09,1.09,0,0,0-.85-.42h-4.39a7.8,7.8,0,0,1-7.68-7.9V182.48a7.8,7.8,0,0,1,7.68-7.9h46.1a7.8,7.8,0,0,1,7.68,7.9Z"/><path class="cls-4" d="M45.88,245.46H56.63v10.75H45.88Z"/><path class="cls-4" d="M110.38,245.46h10.75v10.75H110.38Z"/><path class="cls-4" d="M49.46,290.25h7.17v25.08H49.46Z"/><path class="cls-4" d="M49.46,322.5h7.17v19.71H49.46Z"/><path class="cls-4" d="M110.38,322.5h7.17v19.71h-7.17Z"/><path class="cls-4" d="M110.38,290.25h7.17v25.08h-7.17Z"/><path class="cls-5" d="M97.82,342.21H69.15L62,281.29h43Z"/><path class="cls-6" d="M45.88,281.29h75.25a3.58,3.58,0,0,1,3.58,3.58v1.79a3.58,3.58,0,0,1-3.58,3.58H45.88a3.58,3.58,0,0,1-3.58-3.58v-1.79A3.58,3.58,0,0,1,45.88,281.29Z"/><path class="cls-6" d="M65.36,310l3.8,32.25H97.82l3.8-32.25Z"/><path class="cls-6" d="M63.79,238.29h39.42A10.75,10.75,0,0,1,114,249v3.58a10.75,10.75,0,0,1-10.75,10.75H63.79A10.75,10.75,0,0,1,53,252.62V249A10.75,10.75,0,0,1,63.79,238.29Z"/><path class="cls-7" d="M76.32,250.72a5.38,5.38,0,1,1-5.37-5.37A5.38,5.38,0,0,1,76.32,250.72Z"/><path class="cls-7" d="M101.4,250.72A5.38,5.38,0,1,1,96,245.35,5.38,5.38,0,0,1,101.4,250.72Z"/><path class="cls-4" d="M76.33,263.37H90.67v17.92H76.33Z"/><path class="cls-8" d="M62,318.8a9,9,0,1,1-9-9A9,9,0,0,1,62,318.8Z"/><path class="cls-8" d="M122.9,318.8a9,9,0,1,1-9-9A9,9,0,0,1,122.9,318.8Z"/><path class="cls-9" d="M92.44,318.92H72.79A1.83,1.83,0,0,1,71,317.39a1.79,1.79,0,0,1,1.77-2.06H92.39a1.83,1.83,0,0,1,1.83,1.53A1.79,1.79,0,0,1,92.44,318.92Z"/><path class="cls-9" d="M83.49,326.08h-8.9a1.83,1.83,0,0,1-1.83-1.53,1.79,1.79,0,0,1,1.77-2.06h8.9A1.83,1.83,0,0,1,85.26,324,1.79,1.79,0,0,1,83.49,326.08Z"/><path class="cls-9" d="M90.65,326a1.78,1.78,0,0,1-1.27-.52,2.72,2.72,0,0,1-.4-.59,1.79,1.79,0,0,1-.12-.68,1.5,1.5,0,0,1,.14-.68,2.07,2.07,0,0,1,.38-.59,1.88,1.88,0,0,1,2.54,0,2.07,2.07,0,0,1,.38.59,1.68,1.68,0,0,1,0,1.36,1.61,1.61,0,0,1-1,1A1.78,1.78,0,0,1,90.65,326Z"/><path d="M70.94,243.55a7.17,7.17,0,1,0,7.17,7.17A7.17,7.17,0,0,0,70.94,243.55Zm0,10.75a3.58,3.58,0,1,1,3.58-3.58A3.58,3.58,0,0,1,70.94,254.3Z"/><path d="M96,257.89a7.17,7.17,0,1,0-7.17-7.17A7.17,7.17,0,0,0,96,257.89Zm0-10.75a3.58,3.58,0,1,1-3.58,3.58A3.58,3.58,0,0,1,96,247.14Z"/><path d="M45.88,279.5a5.38,5.38,0,0,0-5.37,5.38v1.79A5.38,5.38,0,0,0,45.88,292h1.79v17.58a10.72,10.72,0,0,0,0,18.59v14A1.79,1.79,0,0,0,49.46,344h7.17a1.79,1.79,0,0,0,1.79-1.79v-14a10.72,10.72,0,0,0,0-18.59V292h3l5.93,50.38A1.79,1.79,0,0,0,69.17,344H97.83a1.79,1.79,0,0,0,1.78-1.58L105.54,292h3v17.58a10.72,10.72,0,0,0,0,18.59v14a1.79,1.79,0,0,0,1.79,1.79h7.17a1.79,1.79,0,0,0,1.79-1.79v-14a10.72,10.72,0,0,0,0-18.59V292h1.79a5.38,5.38,0,0,0,5.38-5.37v-1.79a5.38,5.38,0,0,0-5.37-5.37H92.46V265.17h10.75A12.54,12.54,0,0,0,114.52,258h6.6a1.79,1.79,0,0,0,1.79-1.79V245.46a1.79,1.79,0,0,0-1.79-1.79h-6.6a12.54,12.54,0,0,0-11.31-7.17H63.79a12.54,12.54,0,0,0-11.31,7.17h-6.6a1.79,1.79,0,0,0-1.79,1.79v10.75A1.79,1.79,0,0,0,45.88,258h6.6a12.54,12.54,0,0,0,11.31,7.17H74.54V279.5Zm9,60.92H51.25V329.51a10.06,10.06,0,0,0,3.58,0ZM53,326a7.17,7.17,0,1,1,7.17-7.17A7.17,7.17,0,0,1,53,326Zm1.81-17.64a10.06,10.06,0,0,0-3.58,0V292h3.58Zm15.91,32.09-3.37-28.67H99.6l-3.37,28.67ZM100,308.17H67L65.06,292h36.86Zm15.73,32.25h-3.58V329.51a10.06,10.06,0,0,0,3.58,0ZM113.94,326a7.17,7.17,0,1,1,7.17-7.17A7.17,7.17,0,0,1,113.94,326Zm1.81-17.64a10.06,10.06,0,0,0-3.58,0V292h3.58Zm7.17-23.45v1.79a1.79,1.79,0,0,1-1.79,1.79H45.88a1.79,1.79,0,0,1-1.79-1.79v-1.79a1.79,1.79,0,0,1,1.79-1.79h75.25A1.79,1.79,0,0,1,122.92,284.87Zm-3.58-37.62v7.17h-3.73a12.54,12.54,0,0,0,.14-1.79V249a12.54,12.54,0,0,0-.14-1.79Zm-71.67,7.17v-7.17h3.73a12.54,12.54,0,0,0-.14,1.79v3.58a12.54,12.54,0,0,0,.14,1.79Zm7.17-1.79V249a9,9,0,0,1,9-9h39.42a9,9,0,0,1,9,9v3.58a9,9,0,0,1-9,9H63.79A9,9,0,0,1,54.83,252.62Zm23.29,12.54H88.88V279.5H78.13Z"/><path d="M92.44,315.33H72.79A1.83,1.83,0,0,0,71,316.86a1.79,1.79,0,0,0,1.77,2.06H92.39a1.83,1.83,0,0,0,1.83-1.53A1.79,1.79,0,0,0,92.44,315.33Z"/><path d="M83.49,322.5h-8.9A1.83,1.83,0,0,0,72.76,324a1.79,1.79,0,0,0,1.77,2.06h8.9a1.83,1.83,0,0,0,1.83-1.53A1.79,1.79,0,0,0,83.49,322.5Z"/><path d="M91.92,322.91a1.88,1.88,0,0,0-2.54,0,2.07,2.07,0,0,0-.38.59,1.5,1.5,0,0,0-.14.68,1.79,1.79,0,0,0,.12.68,2.72,2.72,0,0,0,.4.59,1.77,1.77,0,0,0,2,.38,1.61,1.61,0,0,0,1-1,1.68,1.68,0,0,0,0-1.36A2.07,2.07,0,0,0,91.92,322.91Z"/><path d="M236.82,354a48.38,48.38,0,0,0-2.5,56.33,2.49,2.49,0,0,0,4.17-2.71A43.42,43.42,0,0,1,289.28,343a2.48,2.48,0,0,0,2.36-4.3,2.45,2.45,0,0,0-.71-.39A48.41,48.41,0,0,0,236.82,354Z"/><path d="M215.54,411.5a2.48,2.48,0,1,0,4.35-2.4,58.38,58.38,0,0,1,68.23-84,2.49,2.49,0,0,0,1.45-4.75,63.35,63.35,0,0,0-74,91.13Z"/><path d="M254.39,367.85a33.68,33.68,0,0,0-.87,40.28,2.48,2.48,0,0,0,4-2.9,28.54,28.54,0,0,1,33.91-43.11,2.48,2.48,0,0,0,2.47-4.25,2.53,2.53,0,0,0-.6-.35A33.68,33.68,0,0,0,254.39,367.85Z"/><line class="cls-10" x1="147.5" y1="452" x2="328.5" y2="452"/><path class="cls-11" d="M147.31,413.45c1.17,0,1.83,2.1,1.83,2.1l0,4.86a5.22,5.22,0,0,1-5.19,5.24l-92.55.41a2.88,2.88,0,0,0-2.13.91c-3.78,4.17-.74,9,3.41,8.95l95.9-.43a2.42,2.42,0,0,1,2.43,2.41l.07,15.48a.6.6,0,0,1-.16.42c-1.94,2-4.32.66-4.32-1.24l-.05-11.25a1.33,1.33,0,0,0-1.33-1.32L53,440.41s-9.36-4.22-9.38-9.37a9.48,9.48,0,0,1,9.3-9.47l87.19-.39a4.28,4.28,0,0,0,4.54-5v-.56A3.22,3.22,0,0,1,147.31,413.45Z"/><path class="cls-12" d="M28.75,353.53l133.5-.6a5.44,5.44,0,0,1,5.46,5.42l.23,51.89a5.44,5.44,0,0,1-5.42,5.46L29,416.3a5.44,5.44,0,0,1-5.46-5.42L23.34,359A5.44,5.44,0,0,1,28.75,353.53Z"/><path class="cls-13" d="M25.57,414.34c-.09-.42-.14-.86-.19-1.31L25.15,363a7,7,0,0,1,6.41-6.74L163,355.62a8.86,8.86,0,0,1,4.3,2A7.45,7.45,0,0,0,161,352l-131.47.59a7,7,0,0,0-6.24,6.91l.22,50.08A5.87,5.87,0,0,0,25.57,414.34Z"/><path class="cls-11" d="M34.81,390.27l6.92,0a1.47,1.47,0,0,0,1.47-1.48l0-8.71a1.47,1.47,0,0,0-1.48-1.47l-6.92,0a1.47,1.47,0,0,0-1.46,1.48l0,8.71A1.47,1.47,0,0,0,34.81,390.27Z"/><path class="cls-11" d="M34.88,405.51l6.92,0A1.47,1.47,0,0,0,43.27,404l0-9.61a1.47,1.47,0,0,0-1.48-1.47l-6.92,0a1.47,1.47,0,0,0-1.46,1.48l0,9.61A1.47,1.47,0,0,0,34.88,405.51Z"/><path class="cls-11" d="M47.37,390.21l6.92,0a1.47,1.47,0,0,0,1.46-1.48l0-8.71a1.47,1.47,0,0,0-1.48-1.47l-6.92,0A1.47,1.47,0,0,0,45.85,380l0,8.71A1.47,1.47,0,0,0,47.37,390.21Z"/><path class="cls-11" d="M47.3,375.87l6.92,0a1.47,1.47,0,0,0,1.46-1.48l0-9.61a1.47,1.47,0,0,0-1.48-1.46l-6.92,0a1.47,1.47,0,0,0-1.46,1.48l0,9.61A1.47,1.47,0,0,0,47.3,375.87Z"/><path class="cls-11" d="M47.44,405.46l6.92,0a1.47,1.47,0,0,0,1.47-1.48l0-9.61a1.47,1.47,0,0,0-1.48-1.46l-6.92,0a1.47,1.47,0,0,0-1.46,1.48L46,404A1.47,1.47,0,0,0,47.44,405.46Z"/><path class="cls-11" d="M34.75,375.92l6.92,0a1.47,1.47,0,0,0,1.47-1.48l0-9.61a1.47,1.47,0,0,0-1.48-1.46l-6.92,0a1.47,1.47,0,0,0-1.46,1.48l0,9.61A1.47,1.47,0,0,0,34.75,375.92Z"/><path class="cls-11" d="M129.75,375.5l10.62,0a1.41,1.41,0,0,0,1.41-1.42l0-9.73a1.41,1.41,0,0,0-1.42-1.41l-10.62,0a1.41,1.41,0,0,0-1.41,1.42l0,9.73A1.41,1.41,0,0,0,129.75,375.5Z"/><path class="cls-11" d="M132.87,388.42l0-8.83a1.41,1.41,0,0,0-1.42-1.41l-10.62,0a1.41,1.41,0,0,0-1.41,1.42l0,8.83a1.41,1.41,0,0,0,1.42,1.41l10.62,0A1.41,1.41,0,0,0,132.87,388.42Z"/><path class="cls-11" d="M99.26,375.63l25.87-.12a1.41,1.41,0,0,0,1.41-1.42l0-9.73a1.41,1.41,0,0,0-1.42-1.41l-25.87.12a1.41,1.41,0,0,0-1.41,1.42l0,9.73A1.41,1.41,0,0,0,99.26,375.63Z"/><path class="cls-11" d="M147.22,388.35l0-8.83a1.41,1.41,0,0,0-1.42-1.41l-8.83,0a1.41,1.41,0,0,0-1.41,1.42l0,8.83a1.41,1.41,0,0,0,1.42,1.41l8.83,0A1.41,1.41,0,0,0,147.22,388.35Z"/><path class="cls-11" d="M117.63,388.49l0-8.83a1.41,1.41,0,0,0-1.42-1.41l-10.62,0a1.41,1.41,0,0,0-1.41,1.42l0,8.83A1.41,1.41,0,0,0,105.6,390l10.62,0A1.41,1.41,0,0,0,117.63,388.49Z"/><path class="cls-11" d="M68.9,405.36l9.73,0A1.41,1.41,0,0,0,80,403.9l0-9.73a1.41,1.41,0,0,0-1.42-1.41l-9.73,0a1.41,1.41,0,0,0-1.41,1.42l0,9.73A1.41,1.41,0,0,0,68.9,405.36Z"/><path class="cls-11" d="M83.11,375.71l10.62,0a1.41,1.41,0,0,0,1.41-1.42l0-9.73a1.41,1.41,0,0,0-1.42-1.41l-10.62,0a1.41,1.41,0,0,0-1.41,1.42l0,9.73A1.41,1.41,0,0,0,83.11,375.71Z"/><path class="cls-11" d="M140.44,392.49l-10.62,0a1.41,1.41,0,0,0-1.41,1.42l0,9.73a1.41,1.41,0,0,0,1.42,1.41l10.62,0a1.41,1.41,0,0,0,1.41-1.42l0-9.73A1.41,1.41,0,0,0,140.44,392.49Z"/><path class="cls-11" d="M158,388.31l0-8.83a1.41,1.41,0,0,0-1.42-1.41l-5.24,0a1.41,1.41,0,0,0-1.41,1.42l0,8.83a1.41,1.41,0,0,0,1.42,1.41l5.24,0A1.41,1.41,0,0,0,158,388.31Z"/><path class="cls-11" d="M145,375.43l10.62,0A1.41,1.41,0,0,0,157,374l0-9.73a1.41,1.41,0,0,0-1.42-1.41l-10.62,0a1.41,1.41,0,0,0-1.41,1.42l0,9.73A1.41,1.41,0,0,0,145,375.43Z"/><path class="cls-11" d="M155.69,392.42l-10.62,0a1.41,1.41,0,0,0-1.41,1.42l0,9.73a1.41,1.41,0,0,0,1.42,1.41l10.62,0a1.41,1.41,0,0,0,1.41-1.42l0-9.73A1.41,1.41,0,0,0,155.69,392.42Z"/><path class="cls-11" d="M125.2,392.56l-10.62,0a1.41,1.41,0,0,0-1.41,1.42l0,9.73a1.41,1.41,0,0,0,1.42,1.41l10.62,0a1.41,1.41,0,0,0,1.41-1.42l0-9.73A1.41,1.41,0,0,0,125.2,392.56Z"/><path class="cls-11" d="M68.77,375.77l9.73,0a1.41,1.41,0,0,0,1.41-1.42l0-9.73a1.41,1.41,0,0,0-1.42-1.41l-9.73,0a1.41,1.41,0,0,0-1.41,1.42l0,9.73A1.41,1.41,0,0,0,68.77,375.77Z"/><path class="cls-11" d="M102.38,388.55l0-8.83a1.41,1.41,0,0,0-1.42-1.41l-10.62,0a1.41,1.41,0,0,0-1.41,1.42l0,8.83A1.41,1.41,0,0,0,90.35,390L101,390A1.41,1.41,0,0,0,102.38,388.55Z"/><path class="cls-11" d="M109.06,392.63l-10.62,0A1.41,1.41,0,0,0,97,394.1l0,9.73a1.41,1.41,0,0,0,1.42,1.41l10.62,0a1.41,1.41,0,0,0,1.41-1.42l0-9.73A1.41,1.41,0,0,0,109.06,392.63Z"/><path class="cls-11" d="M68.83,390.12l16.9-.08a1.41,1.41,0,0,0,1.41-1.42l0-8.83a1.41,1.41,0,0,0-1.42-1.41l-16.9.08a1.41,1.41,0,0,0-1.41,1.42l0,8.83A1.41,1.41,0,0,0,68.83,390.12Z"/><path class="cls-11" d="M93.81,392.7l-10.62,0a1.41,1.41,0,0,0-1.41,1.42l0,9.73a1.41,1.41,0,0,0,1.42,1.41l10.62,0a1.41,1.41,0,0,0,1.41-1.42l0-9.73A1.41,1.41,0,0,0,93.81,392.7Z"/><circle class="cls-14" cx="374.08" cy="453.52" r="45.52"/><rect class="cls-15" x="358.99" y="472.42" width="14.78" height="7.88"/><rect class="cls-16" x="358.99" y="472.42" width="3.45" height="7.88"/><path class="cls-17" d="M383.13,480.3h-35a1,1,0,0,0-.95.95v4.51a1,1,0,0,0,.95.95h35v-6.4Z"/><path class="cls-18" d="M350.61,485.79v-4.58a.9.9,0,0,1,.89-.91h-3.39a1,1,0,0,0-.95.95v4.51a1,1,0,0,0,.95.95h3.39A.9.9,0,0,1,350.61,485.79Z"/><path class="cls-17" d="M407.3,417.24H325.45a1,1,0,0,0-.95.95V472a1,1,0,0,0,.95.95h58.17V444.16a1.3,1.3,0,0,1,1.3-1.3h23.33V418.19A1,1,0,0,0,407.3,417.24Z"/><path class="cls-1" d="M328.44,463.47a.57.57,0,0,0,.57.57h54.12V444.65a1.3,1.3,0,0,1,1.3-1.3h19.39V426.11H328.44Z"/><path class="cls-19" d="M332.38,463V426.11h-3.45V463a.57.57,0,0,0,.57.57h3.41A.55.55,0,0,1,332.38,463Z"/><circle class="cls-15" cx="366.3" cy="468.28" r="2.56"/><path class="cls-20" d="M383.13,447.29h-9.79a.56.56,0,0,0-.56.56V459a.56.56,0,0,0,.56.56h9.79Z"/><path class="cls-21" d="M376.23,459V447.85a.54.54,0,0,1,.52-.56h-3.41a.56.56,0,0,0-.56.56V459a.56.56,0,0,0,.56.56h3.41A.54.54,0,0,1,376.23,459Z"/><path class="cls-20" d="M384.65,443.35h8.82V431a.93.93,0,0,0-.93-.93H340.21a.93.93,0,0,0-.93.93v12.31s.42.93.93,1.05h43.15C383.44,443.57,384.65,443.35,384.65,443.35Z"/><path class="cls-21" d="M342.73,443.4V431a.91.91,0,0,1,.87-.93h-3.39a.93.93,0,0,0-.93.93V443.4a.93.93,0,0,0,.93.93h3.39A.91.91,0,0,1,342.73,443.4Z"/><path class="cls-22" d="M403.25,421.67H329a.57.57,0,0,0-.57.57v3.87h75.38v-3.87A.57.57,0,0,0,403.25,421.67Z"/><path class="cls-23" d="M332.91,421.67H329.5a.57.57,0,0,0-.57.57v3.87h3.45v-3.89A.54.54,0,0,1,332.91,421.67Z"/><path class="cls-24" d="M356.82,450.25h-16.6a1.43,1.43,0,0,1-1.31-.8,1.49,1.49,0,0,1,1.33-2.16h16.6a1.43,1.43,0,0,1,1.31.8A1.49,1.49,0,0,1,356.82,450.25Z"/><path class="cls-24" d="M356.82,455.17h-16.6a1.43,1.43,0,0,1-1.31-.8,1.49,1.49,0,0,1,1.33-2.16h16.61a1.41,1.41,0,0,1,1.29.78A1.49,1.49,0,0,1,356.82,455.17Z"/><path class="cls-24" d="M356.82,459.61h-16.6a1.43,1.43,0,0,1-1.31-.8,1.49,1.49,0,0,1,1.33-2.16h16.6a1.43,1.43,0,0,1,1.31.8A1.49,1.49,0,0,1,356.82,459.61Z"/><path class="cls-24" d="M368.86,450.25h-8.55a1.43,1.43,0,0,1-1.31-.8,1.49,1.49,0,0,1,1.33-2.16h8.55a1.43,1.43,0,0,1,1.31.8A1.49,1.49,0,0,1,368.86,450.25Z"/><path class="cls-24" d="M368.86,455.17h-8.55a1.43,1.43,0,0,1-1.31-.8,1.49,1.49,0,0,1,1.33-2.16h8.56a1.41,1.41,0,0,1,1.29.78A1.49,1.49,0,0,1,368.86,455.17Z"/><path class="cls-24" d="M368.86,459.61h-8.55a1.43,1.43,0,0,1-1.31-.8,1.49,1.49,0,0,1,1.33-2.16h8.55a1.43,1.43,0,0,1,1.31.8A1.49,1.49,0,0,1,368.86,459.61Z"/><path class="cls-15" d="M418.1,442.86a1.49,1.49,0,0,1,1.49,1.48v44.82a1.49,1.49,0,0,1-1.49,1.49H384.61a1.49,1.49,0,0,1-1.49-1.49V444.34a1.49,1.49,0,0,1,1.49-1.49Z"/><path class="cls-1" d="M386.58,484.3V446.74a.93.93,0,0,1,.93-.93H415.7a.93.93,0,0,1,.93.93V484.3a.93.93,0,0,1-.93.93H387.5A.93.93,0,0,1,386.58,484.3Z"/><path class="cls-19" d="M390,484.29V446.75a.91.91,0,0,1,.87-.93H387.5a.93.93,0,0,0-.93.93V484.3a.93.93,0,0,0,.93.93h3.39A.91.91,0,0,1,390,484.29Z"/><path class="cls-15" d="M399.64,488.67a.73.73,0,0,1-.75-.95v-.36c-.18-.51.24-.93.75-1.16h3.48a2.49,2.49,0,0,1,1.19,1.16v.36a1.51,1.51,0,0,1-1.19.95Z"/><path class="cls-22" d="M416.63,449.26v-2.52a.93.93,0,0,0-.93-.93H387.5a.93.93,0,0,0-.93.93v2.52Z"/><path class="cls-23" d="M390.89,445.81H387.5a.93.93,0,0,0-.93.93v2.52H390v-2.55A.88.88,0,0,1,390.89,445.81Z"/><path class="cls-24" d="M408.1,466.5H394.65a1.43,1.43,0,0,1-1.31-.8,1.49,1.49,0,0,1,1.33-2.16h13.46a1.41,1.41,0,0,1,1.29.78A1.49,1.49,0,0,1,408.1,466.5Z"/><path class="cls-24" d="M408.1,470.94H394.64a1.41,1.41,0,0,1-1.29-.78,1.49,1.49,0,0,1,1.32-2.17h13.45a1.43,1.43,0,0,1,1.31.8A1.49,1.49,0,0,1,408.1,470.94Z"/><path class="cls-24" d="M408.1,474.88H394.64a1.41,1.41,0,0,1-1.29-.78,1.49,1.49,0,0,1,1.32-2.17h13.45a1.43,1.43,0,0,1,1.31.8A1.49,1.49,0,0,1,408.1,474.88Z"/><path class="cls-20" d="M412.74,461.08H390a.93.93,0,0,1-.93-.93v-7.5a.93.93,0,0,1,.93-.93h22.78a.93.93,0,0,1,.93.93v7.5A.93.93,0,0,1,412.74,461.08Z"/><path class="cls-21" d="M392.49,460.17v-7.53a.89.89,0,0,1,.87-.91H390a.93.93,0,0,0-.93.93v7.5a.93.93,0,0,0,.93.93h3.39A.89.89,0,0,1,392.49,460.17Z"/><path class="cls-20" d="M410.22,481.85a.92.92,0,0,1-.93.92H393.42a.93.93,0,0,1-.93-.93v-3.07a.93.93,0,0,1,.93-.93h15.88a.93.93,0,0,1,.93.93v3.08Z"/><path class="cls-21" d="M395.94,481.85v-3.1a.9.9,0,0,1,.87-.92h-3.39a.93.93,0,0,0-.93.93v3.07a.93.93,0,0,0,.93.93h3.39A.9.9,0,0,1,395.94,481.85Z"/></g></g></svg>