<svg xmlns="http://www.w3.org/2000/svg" xmlns:xlink="http://www.w3.org/1999/xlink" viewBox="0 0 62.79 125.44"><defs><style>.cls-1,.cls-2{fill:none;}.cls-2{stroke:#434343;stroke-width:2.87px;}.cls-2,.cls-23,.cls-26{stroke-linecap:square;}.cls-3{fill:url(#linear-gradient);}.cls-4{fill:url(#linear-gradient-2);}.cls-5{fill:url(#linear-gradient-3);}.cls-6{fill:url(#linear-gradient-4);}.cls-7{fill:url(#linear-gradient-5);}.cls-8{fill:url(#linear-gradient-6);}.cls-9{fill:url(#linear-gradient-7);}.cls-10{fill:url(#linear-gradient-8);}.cls-11{fill:url(#radial-gradient);}.cls-12{fill:url(#radial-gradient-2);}.cls-13{fill:url(#linear-gradient-9);}.cls-14{fill:url(#radial-gradient-3);}.cls-15{fill:url(#linear-gradient-10);}.cls-16{fill:url(#radial-gradient-4);}.cls-17{fill:url(#linear-gradient-11);}.cls-18{fill:url(#linear-gradient-12);}.cls-19{fill:#6c6c6c;opacity:0.2;}.cls-19,.cls-22,.cls-40{isolation:isolate;}.cls-20{fill:url(#linear-gradient-13);}.cls-21{clip-path:url(#clip-path);}.cls-22{opacity:0.05;fill:url(#linear-gradient-14);}.cls-23{fill:#2d2d2e;stroke-width:1.43px;stroke:url(#linear-gradient-15);}.cls-24{fill:#2b2726;}.cls-25{fill:url(#linear-gradient-16);}.cls-26{fill:#111627;stroke-width:0.98px;stroke:url(#linear-gradient-17);}.cls-27{clip-path:url(#clip-path-2);}.cls-28{filter:url(#filter123962);}.cls-29{fill:#347aba;}.cls-30{filter:url(#filter124016);}.cls-31{fill:url(#radial-gradient-5);}.cls-32{filter:url(#filter124080);}.cls-33{fill:url(#linear-gradient-18);}.cls-34{filter:url(#filter124118);}.cls-35{fill:#6b89b7;}.cls-36{fill:#f7f7f7;}.cls-37{fill:url(#linear-gradient-19);}.cls-38{fill:#262626;}.cls-39{fill:url(#linear-gradient-20);}.cls-40{fill:#fff;opacity:0.15;}</style><linearGradient id="linear-gradient" x1="1025.97" y1="789.36" x2="1025.97" y2="795.65" gradientTransform="matrix(1.44, 0, 0, -1.44, -1413.16, 1171.27)" gradientUnits="userSpaceOnUse"><stop offset="0" stop-color="#37383d"/><stop offset="0.03" stop-color="#898a8d"/><stop offset="0.54" stop-color="#d3d4d9"/><stop offset="0.98" stop-color="#c6c7cc"/><stop offset="1" stop-color="#434449"/></linearGradient><linearGradient id="linear-gradient-2" x1="1029.74" y1="789.36" x2="1029.74" y2="795.65" gradientTransform="matrix(1.44, 0, 0, -1.44, -1418.81, 1171.27)" gradientUnits="userSpaceOnUse"><stop offset="0" stop-color="#37383d"/><stop offset="0.03" stop-color="#68696e"/><stop offset="0.54" stop-color="#76777c"/><stop offset="0.98" stop-color="#6e6f74"/><stop offset="1" stop-color="#434449"/></linearGradient><linearGradient id="linear-gradient-3" x1="1031.29" y1="799.7" x2="1031.29" y2="803.06" gradientTransform="matrix(1.44, 0, 0, -1.44, -1480.95, 1171.27)" gradientUnits="userSpaceOnUse"><stop offset="0" stop-color="#6a6b70"/><stop offset="0.05" stop-color="#c1c2c7"/><stop offset="0.54" stop-color="#d2d3d8"/><stop offset="0.93" stop-color="#9f9fa3"/><stop offset="0.95" stop-color="#6f7074"/><stop offset="0.96" stop-color="#747579"/><stop offset="1" stop-color="#bdbec3"/></linearGradient><linearGradient id="linear-gradient-4" x1="1028.22" y1="799.7" x2="1028.22" y2="803.06" gradientTransform="matrix(1.44, 0, 0, -1.44, -1476.3, 1171.27)" gradientUnits="userSpaceOnUse"><stop offset="0" stop-color="#77787c"/><stop offset="0.03" stop-color="#696a6e"/><stop offset="0.54" stop-color="#75767b"/><stop offset="0.98" stop-color="#68696e"/><stop offset="1" stop-color="#44454a"/></linearGradient><linearGradient id="linear-gradient-5" x1="1031.29" y1="942.57" x2="1031.29" y2="948.83" gradientTransform="matrix(1.44, 0, 0, -1.44, -1480.95, 1391.46)" gradientUnits="userSpaceOnUse"><stop offset="0" stop-color="#6a6b70"/><stop offset="0.05" stop-color="#c2c3c7"/><stop offset="0.54" stop-color="#c8c9ce"/><stop offset="0.93" stop-color="#b8b9be"/><stop offset="0.95" stop-color="#7d7e81"/><stop offset="0.96" stop-color="#696a6f"/><stop offset="1" stop-color="#c0c1c6"/></linearGradient><linearGradient id="linear-gradient-6" x1="1028.22" y1="942.56" x2="1028.22" y2="948.83" gradientTransform="matrix(1.44, 0, 0, -1.44, -1476.3, 1391.46)" gradientUnits="userSpaceOnUse"><stop offset="0" stop-color="#45464a"/><stop offset="0.03" stop-color="#6f7075"/><stop offset="0.54" stop-color="#75767b"/><stop offset="0.98" stop-color="#5e5f64"/><stop offset="1" stop-color="#4d4e52"/></linearGradient><linearGradient id="linear-gradient-7" x1="1031.29" y1="1094.09" x2="1031.29" y2="1100.35" gradientTransform="matrix(1.44, 0, 0, -1.44, -1480.95, 1620.34)" gradientUnits="userSpaceOnUse"><stop offset="0" stop-color="#595a5e"/><stop offset="0.05" stop-color="#c9cacf"/><stop offset="0.54" stop-color="#d2d3d8"/><stop offset="0.91" stop-color="#bbbcc1"/><stop offset="0.95" stop-color="#737478"/><stop offset="0.96" stop-color="#696a6f"/><stop offset="1" stop-color="#bfc0c4"/></linearGradient><linearGradient id="linear-gradient-8" x1="1028.22" y1="1094.08" x2="1028.22" y2="1100.35" gradientTransform="matrix(1.44, 0, 0, -1.44, -1476.3, 1620.34)" gradientUnits="userSpaceOnUse"><stop offset="0" stop-color="#424347"/><stop offset="0.03" stop-color="#6f7075"/><stop offset="0.54" stop-color="#75767b"/><stop offset="0.98" stop-color="#68696e"/><stop offset="1" stop-color="#393a3f"/></linearGradient><radialGradient id="radial-gradient" cx="2392.88" cy="-697.81" r="3.08" gradientTransform="matrix(0, 2.78, 2.87, 0, 2058.57, -6540.07)" gradientUnits="userSpaceOnUse"><stop offset="0" stop-color="#ededed"/><stop offset="0.86" stop-color="#b5b6b9"/><stop offset="0.88" stop-color="#c4c4c4"/><stop offset="0.94" stop-color="#d2d2d2"/><stop offset="1" stop-color="#737373"/></radialGradient><radialGradient id="radial-gradient-2" cx="3077.76" cy="829.12" r="3.08" gradientTransform="matrix(2.87, 0, 0, -2.76, -8795.35, 2301.05)" xlink:href="#radial-gradient"/><linearGradient id="linear-gradient-9" x1="3028.99" y1="734.56" x2="3028.99" y2="728.6" gradientTransform="matrix(1.44, 0, 0, -1.44, -4322.31, 1171.27)" xlink:href="#radial-gradient"/><radialGradient id="radial-gradient-3" cx="3248.06" cy="-912.57" r="3.14" gradientTransform="matrix(0, -2.72, -2.87, 0, -2612.95, 8963.53)" xlink:href="#radial-gradient"/><linearGradient id="linear-gradient-10" x1="3014.37" y1="771.25" x2="3008.08" y2="771.25" gradientTransform="matrix(1.44, 0, 0, -1.44, -4322.31, 1171.27)" xlink:href="#radial-gradient"/><radialGradient id="radial-gradient-4" cx="2433.64" cy="567.51" r="3.14" gradientTransform="matrix(0, -2.71, -2.87, 0, 1641.98, 6596.34)" xlink:href="#radial-gradient"/><linearGradient id="linear-gradient-11" x1="3028.99" y1="807.98" x2="3028.99" y2="813.87" gradientTransform="matrix(1.44, 0, 0, -1.44, -4322.31, 1171.27)" xlink:href="#radial-gradient"/><linearGradient id="linear-gradient-12" x1="2579.73" y1="771.25" x2="2573.44" y2="771.25" gradientTransform="translate(3760.36 1171.27) rotate(180) scale(1.44)" xlink:href="#radial-gradient"/><linearGradient id="linear-gradient-13" x1="2029.01" y1="729.74" x2="2029.01" y2="812.44" gradientTransform="matrix(1.44, 0, 0, -1.44, -2884.93, 1171.27)" gradientUnits="userSpaceOnUse"><stop offset="0" stop-color="#ededed"/><stop offset="1" stop-color="#f8f8f8"/></linearGradient><clipPath id="clip-path"><path class="cls-1" d="M10.53,2.57a8,8,0,0,0-8,7.94V115.19a8,8,0,0,0,8,7.94h42a8,8,0,0,0,8-7.94V10.51a8,8,0,0,0-8-7.94ZM4.92,16.19H58v93.5h-53Z"/></clipPath><linearGradient id="linear-gradient-14" x1="2029.01" y1="729.74" x2="2029.01" y2="812.44" xlink:href="#linear-gradient-13"/><linearGradient id="linear-gradient-15" x1="1028.95" y1="827.16" x2="1028.95" y2="825.34" gradientTransform="matrix(1.44, 0, 0, -1.44, -1447.56, 1197.05)" gradientUnits="userSpaceOnUse"><stop offset="0" stop-color="#2d2d2e"/><stop offset="0.16" stop-color="#363636"/><stop offset="0.83" stop-color="#2b2a2a"/><stop offset="1" stop-color="#4a4646"/></linearGradient><linearGradient id="linear-gradient-16" x1="1061.81" y1="808.75" x2="1062.84" y2="807.81" gradientTransform="matrix(1.44, 0, 0, -1.44, -1505.05, 1171.27)" gradientUnits="userSpaceOnUse"><stop offset="0" stop-color="#262626"/><stop offset="1" stop-color="#7b7b7b"/></linearGradient><linearGradient id="linear-gradient-17" x1="1050.54" y1="808.3" x2="1051.77" y2="807.16" gradientTransform="matrix(1.42, 0, 0, -1.42, -1472.27, 1157.66)" gradientUnits="userSpaceOnUse"><stop offset="0" stop-color="#050607"/><stop offset="1" stop-color="#3a3938"/></linearGradient><clipPath id="clip-path-2"><ellipse class="cls-1" cx="21.93" cy="9.5" rx="0.53" ry="0.52"/></clipPath><filter id="filter123962" x="-0.12" y="-0.12" width="1.24" height="1.24" name="filter123962"><feGaussianBlur result="feGaussianBlur123964" stdDeviation="0.46"/></filter><filter id="filter124016" x="-0.12" y="-0.12" width="1.24" height="1.24" name="filter124016"><feGaussianBlur result="feGaussianBlur124018" stdDeviation="0.53"/></filter><radialGradient id="radial-gradient-5" cx="1042.13" cy="813.41" r="0.26" gradientTransform="matrix(1.44, 0, 0, -1.42, -1476.3, 1168.13)" gradientUnits="userSpaceOnUse"><stop offset="0" stop-color="#6f8ebd"/><stop offset="1" stop-color="#223152"/></radialGradient><filter id="filter124080" x="-0.12" y="-0.12" width="1.25" height="1.23" name="filter124080"><feGaussianBlur result="feGaussianBlur124082" stdDeviation="0.65"/></filter><linearGradient id="linear-gradient-18" x1="1042.25" y1="807.92" x2="1042.71" y2="808.37" gradientTransform="matrix(1.44, 0, 0, -1.44, -1476.3, 1171.27)" gradientUnits="userSpaceOnUse"><stop offset="0" stop-color="#25384f"/><stop offset="1" stop-color="#2c466d"/></linearGradient><filter id="filter124118" x="-0.12" y="-0.12" width="1.24" height="1.24" name="filter124118"><feGaussianBlur result="feGaussianBlur124120" stdDeviation="0.38"/></filter><linearGradient id="linear-gradient-19" x1="1189.94" y1="731.07" x2="1188.02" y2="737.12" gradientTransform="matrix(1.44, 0, 0, -1.44, -1677.54, 1171.27)" gradientUnits="userSpaceOnUse"><stop offset="0" stop-color="#0c0f11"/><stop offset="0.12" stop-color="#070a0c"/><stop offset="0.38" stop-color="#e7e8ea"/><stop offset="0.5" stop-color="#fff"/><stop offset="0.61" stop-color="#eef0ef"/><stop offset="0.77" stop-color="#292b2e"/><stop offset="0.9" stop-color="#3c3d3f"/><stop offset="1" stop-color="#3b3c3e"/></linearGradient><linearGradient id="linear-gradient-20" x1="3029.02" y1="729.2" x2="3029.02" y2="812.76" gradientTransform="matrix(1.44, 0, 0, -1.44, -4322.31, 1171.27)" gradientUnits="userSpaceOnUse"><stop offset="0" stop-color="#efefef"/><stop offset="0.04" stop-color="#fefefe"/><stop offset="0.49" stop-color="#fcfcfc"/><stop offset="0.96" stop-color="#fff"/><stop offset="1" stop-color="#f8f8f8"/></linearGradient></defs><title>iphone6_1</title><g id="Layer_2" data-name="Layer 2"><g id="svg123329"><g id="layer5"><g id="g125358"><path id="path124754" class="cls-2" d="M10.38,1.44h-.05c-4.65.1-8.82,3.72-8.89,8.36h0v.13h0V115.58h0c.08,4.65,4.24,8.32,8.89,8.42h2a1.39,1.39,0,0,1,.9-.23,1.39,1.39,0,0,1,.9.23H28.3a1.05,1.05,0,0,1,.76-.26h4.84a1.05,1.05,0,0,1,.76.26h18a8.76,8.76,0,0,0,8.71-8.42h0V9.81h0a8.71,8.71,0,0,0-8.71-8.37H10.38Zm.09,1.25h42a7.44,7.44,0,0,1,7.58,7.25h0V115.44a7.5,7.5,0,0,1-7.58,7.31h-42c-4.08,0-7.77-3.31-7.77-7.31V9.94c0-4,3.69-7.22,7.77-7.24h0Z"/><g id="Buttons"><g id="g124284"><rect id="rect124268" class="cls-3" x="61.28" y="27.62" width="0.53" height="9.04" rx="0.21" ry="0.21"/><rect id="rect124252" class="cls-4" x="61.11" y="27.62" width="0.43" height="9.04"/></g><g id="g124324"><rect id="rect124304" class="cls-5" x="0.98" y="16.96" width="0.84" height="4.83" rx="0.21" ry="0.21"/><rect id="rect124288" class="cls-6" x="1.21" y="16.96" width="0.84" height="4.83"/></g><g id="g124376"><rect id="rect124330" class="cls-7" x="0.98" y="27.63" width="0.84" height="9.03" rx="0.21" ry="0.21"/><rect id="rect124332" class="cls-8" x="1.21" y="27.63" width="0.84" height="9.03"/></g><g id="g124420"><rect id="rect124382" class="cls-9" x="0.98" y="38.71" width="0.84" height="9.03" rx="0.21" ry="0.21"/><rect id="rect124384" class="cls-10" x="1.21" y="38.71" width="0.84" height="9.03"/></g></g><g id="g124716"><path id="path124616" class="cls-11" d="M61.35,115.44H60.09a7.5,7.5,0,0,1-7.58,7.31h0V124h0A8.76,8.76,0,0,0,61.35,115.44Z"/><path id="path124602" class="cls-12" d="M52.5,1.44V2.69h0a7.44,7.44,0,0,1,7.58,7.25h1.27a8.71,8.71,0,0,0-8.85-8.5Z"/><path id="path124600" class="cls-13" d="M10.33,122.75V124h2a1.39,1.39,0,0,1,.9-.23,1.39,1.39,0,0,1,.9.23H28.3a1.05,1.05,0,0,1,.76-.26h4.84a1.05,1.05,0,0,1,.76.26h18v-1.25H10.33Z"/><path id="path124611" class="cls-14" d="M2.7,115.44H1.44c0,4.76,4.28,8.53,9,8.56v-1.25C6.39,122.72,2.7,119.44,2.7,115.44Z"/><path id="path124609" class="cls-15" d="M2.7,9.81H1.44V115.58H2.7Z"/><path id="path124598" class="cls-16" d="M10.47,1.44c-4.75,0-9,3.74-9,8.5H2.7c0-4,3.69-7.22,7.77-7.24Z"/><path id="path124577" class="cls-17" d="M10.33,1.44V2.69H52.64V1.44H10.33Z"/><path id="path124712" class="cls-18" d="M60.09,9.81h1.27V115.58H60.09Z"/></g><g id="g124811"><rect id="rect124740" class="cls-19" x="1.43" y="11.13" width="1.08" height="1.88"/><rect id="rect124750" class="cls-19" x="60.52" y="11.13" width="0.83" height="1.88"/><rect id="rect124807" class="cls-19" x="1.43" y="112.86" width="1.08" height="1.88"/><rect id="rect124809" class="cls-19" x="60.52" y="112.86" width="0.83" height="1.88"/></g><path id="rect124424" class="cls-20" d="M10.53,2.57a8,8,0,0,0-8,7.94V115.19a8,8,0,0,0,8,7.94h42a8,8,0,0,0,8-7.94V10.51a8,8,0,0,0-8-7.94h-42ZM4.92,16.19H58v93.5h-53V16.19Z"/><g class="cls-21"><path id="path124547" class="cls-22" d="M10.53,2.57a8,8,0,0,0-8,7.94V115.19a8,8,0,0,0,8,7.94h42a8,8,0,0,0,8-7.94V10.51a8,8,0,0,0-8-7.94ZM4.92,16.19H58v93.5h-53Z"/></g><path id="rect123888" class="cls-23" d="M27,9h8.81a.42.42,0,0,1,.42.42v0a.41.41,0,0,1-.41.41H27a.42.42,0,0,1-.42-.42v0A.41.41,0,0,1,27,9Z"/><ellipse id="path123904" class="cls-24" cx="31.44" cy="5.43" rx="0.76" ry="0.75"/><g id="g124195"><ellipse id="path124157" class="cls-25" cx="21.92" cy="9.48" rx="1.04" ry="1.03"/><ellipse id="path123906" class="cls-26" cx="21.93" cy="9.5" rx="0.56" ry="0.56"/><g class="cls-27"><g id="g124122"><g class="cls-28"><ellipse class="cls-29" cx="21.74" cy="9.11" rx="0.38" ry="0.35"/></g><g class="cls-30"><circle class="cls-31" cx="21.63" cy="9.74" r="0.37"/></g><g class="cls-32"><path class="cls-33" d="M22.36,9.08a.64.64,0,0,1,0,.15.75.75,0,0,1-.78.71.59.59,0,0,0,.29.08.59.59,0,0,0,.59-.58A.58.58,0,0,0,22.36,9.08Z"/></g><g class="cls-34"><circle class="cls-35" cx="22.34" cy="9.2" r="0.27"/></g></g></g></g><g id="g124248"><path id="circle124228" class="cls-36" d="M31.45,111.36A4.76,4.76,0,0,0,26.6,116h0a4.85,4.85,0,0,0,9.7,0h0a4.76,4.76,0,0,0-4.85-4.67Zm0,.51A4.16,4.16,0,1,1,27.38,116a4.12,4.12,0,0,1,4.07-4.16Z"/><path id="path124204" class="cls-37" d="M31.46,111.36A4.69,4.69,0,0,0,26.74,116h0a4.69,4.69,0,0,0,4.71,4.67h0a4.67,4.67,0,1,0,0-9.34Zm0,.51a4.18,4.18,0,0,1,4.2,4.16h0a4.2,4.2,0,1,1-4.2-4.16Z"/></g><path id="rect124426" class="cls-38" d="M5.15,16.07a.49.49,0,0,0-.49.49v92.75a.49.49,0,0,0,.49.49H57.73a.49.49,0,0,0,.49-.49V16.56a.49.49,0,0,0-.49-.49H5.15Zm-.06.41h52.7v92.9H5.09V16.48Z"/><path id="path124524" class="cls-39" d="M10.53,3A7.17,7.17,0,0,0,3,10.51V115.19c0,4.4,3.08,7.94,7.51,7.94h42c4.44,0,7.54-3.54,7.54-7.94V10.51A7.19,7.19,0,0,0,52.51,3h-42Zm1.41.1H51.1c4.44,0,8,3,8,7.38V115.19c0,4.4-3.57,7.52-8,7.52H11.93c-4.44,0-8-3.12-8-7.52V10.51c0-4.4,3.57-7.38,8-7.38Z"/></g></g><g id="layer4"><path id="path125212" class="cls-40" d="M10.53,2.57a8,8,0,0,0-8,7.94V115.19a8,8,0,0,0,8,7.94h9.38L34.61,2.57Z"/></g></g></g></svg>